<?xml version="1.0" encoding="UTF-8"?>
<svg id="Layer_1" xmlns="http://www.w3.org/2000/svg" width="621.539" height="197.125" version="1.1" viewBox="0 0 621.539 197.125" preserveAspectRatio="xMidYMid meet">
  <g>
    <g>
      <path d="M469.569,170.907v-6.33c0-9.033,6.067-12.396,11.671-14.967,4.747-2.307,9.495-2.967,9.495-8.176,0-3.362-1.45-5.077-4.286-5.077-2.769,0-4.154,1.187-5.472,4.417-.791,1.979-1.45,2.375-3.23,1.781l-6.132-2.044c-1.78-.594-2.242-1.517-1.582-3.43,2.505-6.725,7.385-11.275,16.616-11.275,10.286,0,16.022,6.198,16.022,15.099s-4.55,12.462-13.451,16.286c-3.032,1.385-6.99,2.967-6.99,5.341v.527h17.342c1.978,0,2.637.725,2.637,2.77v5.076c0,1.979-.66,2.704-2.637,2.704h-27.429c-1.846,0-2.572-.725-2.572-2.704Z" style="fill: #fff;"/>
      <path d="M508.073,157.786v-15.231c0-10.221,6.33-16.748,17.209-16.748s17.142,6.527,17.142,16.748v15.231c0,10.352-6.264,16.813-17.142,16.813s-17.209-6.461-17.209-16.813ZM530.754,158.116v-15.891c0-3.759-1.912-5.869-5.472-5.869-3.627,0-5.473,2.11-5.473,5.869v15.891c0,3.824,1.846,5.934,5.473,5.934,3.56,0,5.472-2.11,5.472-5.934Z" style="fill: #fff;"/>
      <path d="M547.96,170.907v-6.33c0-9.033,6.067-12.396,11.671-14.967,4.747-2.307,9.495-2.967,9.495-8.176,0-3.362-1.45-5.077-4.286-5.077-2.769,0-4.154,1.187-5.472,4.417-.791,1.979-1.45,2.375-3.23,1.781l-6.132-2.044c-1.78-.594-2.242-1.517-1.582-3.43,2.505-6.725,7.385-11.275,16.616-11.275,10.286,0,16.022,6.198,16.022,15.099s-4.55,12.462-13.451,16.286c-3.032,1.385-6.99,2.967-6.99,5.341v.527h17.342c1.978,0,2.637.725,2.637,2.77v5.076c0,1.979-.66,2.704-2.637,2.704h-27.429c-1.846,0-2.572-.725-2.572-2.704Z" style="fill: #fff;"/>
      <path d="M585.54,163.654c-.659-1.912-.198-2.836,1.582-3.429l6-1.979c1.649-.527,2.572-.329,3.43,1.649,1.055,2.77,2.571,4.022,5.867,4.022,2.77,0,5.011-1.715,5.011-5.539,0-3.561-2.505-5.209-5.472-5.209h-12.263c-2.176,0-2.836-.924-2.572-3.165l1.78-19.386c.265-2.901,1.254-3.89,4.155-3.89h22.022c1.912,0,2.506.725,2.506,2.769v5.077c0,2.044-.594,2.704-2.506,2.704h-15.561l-.461,5.934h4.352c11.34,0,16.087,6.857,16.087,15.429,0,9.032-5.802,15.956-16.55,15.956-9.495,0-14.901-3.692-17.407-10.945Z" style="fill: #fff;"/>
    </g>
    <rect x="467.551" y="195.453" width="153.987" height="1.295" style="fill: #fff;"/>
    <rect x="467.551" y="105.615" width="153.987" height="1.295" style="fill: #fff;"/>
  </g>
  <g>
    <path d="M0,69.691l8.35-1.893V12.246L0,10.242V1.447h35.291c21.82,0,30.17,8.461,30.17,22.266,0,16.699-10.688,23.824-25.717,23.824-3.896,0-8.238-.891-8.35-.891v-8.906c.111,0,2.338.223,4.342.223,7.125,0,10.688-4.453,10.688-12.914,0-8.795-3.562-12.469-11.244-12.469h-7.793v55.33l9.797,1.781v8.906H0v-8.906Z" style="fill: #232323;"/>
    <path d="M68.797,69.691l8.461-1.893V12.357l-8.238-2.115V1.447h37.295c20.262,0,28.945,8.35,28.945,22.154,0,10.688-6.346,15.586-14.027,18.48v.445l15.029,25.494,6.346,1.781v8.795h-21.264l-17.701-31.951h-7.348v21.264l7.459,1.781v8.906h-34.957v-8.906ZM104.645,36.85c8.572,0,11.467-5.455,11.467-13.025,0-8.016-3.562-11.467-12.023-11.467h-7.793v24.492h8.35Z" style="fill: #232323;"/>
    <path d="M145.053,69.691l8.461-1.893V12.246l-8.461-2.004V1.447h35.848v8.795l-8.461,2.004v55.553l8.461,1.893v8.906h-35.848v-8.906Z" style="fill: #232323;"/>
    <path d="M184.794,69.691l8.35-1.893V12.246l-8.35-2.004V1.447h62.344l1.113,22.043h-10.242l-4.23-11.689h-21.932v22.377h9.352l2.338-8.238h8.35v26.496h-8.35l-2.338-8.461h-9.352v24.158h22.6l5.566-14.361h10.242l-1.225,24.826h-64.236v-8.906Z" style="fill: #232323;"/>
    <path d="M254.259,69.803l8.35-2.004V12.246l-8.35-2.004V1.447h33.955l14.361,48.428h.445l14.807-48.428h34.846v8.795l-8.795,2.004v55.553l8.795,1.893v8.906h-34.289v-8.906l7.125-1.781V16.588h-.445l-18.703,60.34h-12.469l-18.48-59.895h-.445v50.877l7.236,1.781v8.906h-27.943v-8.795Z" style="fill: #232323;"/>
    <path d="M373.708,69.691l8.572-1.893v-21.152l-20.596-34.4-6.234-2.004V1.447h32.619v8.795l-6.457,1.893,13.248,23.713h.445l12.58-23.713-6.568-1.893V1.447h25.383v8.795l-6.234,2.004-19.148,34.066v21.486l8.461,1.893v8.906h-36.07v-8.906Z" style="fill: #232323;"/>
    <path d="M429.703,76.148l-1.002-19.816h11.133l3.006,10.02c3.006,1.447,6.123,2.449,11.021,2.449,7.904,0,11.912-4.23,11.912-9.797,0-5.9-4.898-8.572-12.691-11.578l-6.012-2.449c-10.91-3.896-17.59-9.24-17.59-22.043,0-13.137,8.461-22.934,28.5-22.934,10.242,0,16.811,1.559,21.152,3.006l1.002,18.258h-11.021l-2.338-8.127c-2.004-1.002-4.898-2.115-9.574-2.115-6.234,0-10.799,2.672-10.799,8.127,0,5.232,3.674,7.57,11.021,10.354l6.123,2.338c12.58,4.676,20.373,9.018,20.373,23.156,0,14.695-9.908,24.938-30.059,24.938-9.018,0-18.369-1.559-24.158-3.785Z" style="fill: #232323;"/>
    <path d="M488.592,69.691l8.35-1.893V12.246l-8.35-2.004V1.447h62.344l1.113,22.043h-10.242l-4.23-11.689h-21.932v22.377h9.352l2.338-8.238h8.35v26.496h-8.35l-2.338-8.461h-9.352v24.158h22.6l5.566-14.361h10.242l-1.225,24.826h-64.236v-8.906Z" style="fill: #232323;"/>
    <path d="M558.057,69.691l8.35-1.893V12.246l-8.35-2.004V1.447h36.293v8.795l-8.906,1.893v55.775h19.371l5.455-16.699h10.242l-1.447,27.387h-61.008v-8.906Z" style="fill: #232323;"/>
    <path d="M.496,159.622c0-9.601,6.101-15.601,16.601-21.201-3.7-4.7-6.3-9.4-6.3-15.501,0-10.4,8-16.501,17.101-16.501,7.7,0,14.901,4.6,14.901,13.301,0,9.201-7.701,13.901-17.401,18.901l18.501,22.101c3-5,5-10.701,6.101-15.701l-7.601-1.4v-3.1h19.501v3.1l-6.9,1.4c-1.5,6-4.1,13-8.3,19.101l6.8,8.101,8.9,1.4v3.2h-13.5l-6.4-7.601c-5,5.101-11.701,8.701-20.501,8.701-12.701,0-21.501-7.5-21.501-18.301ZM39.898,166.123l-20.501-24.801c-8,4.5-11.801,9.7-11.801,17.501,0,8.3,5.8,14.601,15.801,14.601,7,0,12.501-3,16.501-7.3ZM23.098,135.821c8.5-4.5,13.301-8.101,13.301-15.801,0-6.4-3.9-9.501-8.8-9.501-5.9,0-10.401,4.2-10.401,11.701,0,5.3,2.5,9.301,5.9,13.601Z" style="fill: #232323;"/>
    <path d="M85.194,174.123l7.9-1.2v-64.604l-8.7-1.2v-2.9l14.301-1.7.8.5v69.904l7.901,1.2v2.7h-22.202v-2.7Z" style="fill: #232323;"/>
    <path d="M111.095,151.622c0-16.601,10.9-26.802,23.601-26.802,13.401,0,23.802,9.701,23.802,26.302s-10.901,26.802-23.602,26.802c-13.401,0-23.801-9.701-23.801-26.302ZM151.797,151.722c0-16.301-8.4-22.701-17.101-22.701s-16.901,6.2-16.901,22.101c0,16.101,8.4,22.602,17.101,22.602s16.901-6.101,16.901-22.001Z" style="fill: #232323;"/>
    <path d="M162.395,184.524c0-6,4.601-9.801,10.301-12.401v-.3c-3.3-1-5.7-3.5-5.7-7,0-3.601,2.1-6.801,5.8-10.001-4.101-2.7-6.601-6.9-6.601-13,0-10.601,8-16.901,18.801-16.901,3.3,0,6.2.5,8.601,1.4l14.901-1.4v4.9l-10.101-.4c3.4,2.6,5.6,6.4,5.6,11.601,0,10.601-8.3,16.901-19.101,16.901-3.5,0-6.701-.6-9.4-1.7-2.1,2-3.3,4.3-3.3,6.5s1.7,4.101,5,4.101h16.101c9,0,15.501,3.3,15.501,12.201,0,9.5-8.3,18.101-25.702,18.101-14.701,0-20.701-6.4-20.701-12.601ZM202.897,180.523c0-5.5-3.3-7.8-10.601-7.8h-15.601c-4.8,2.1-8.101,6-8.101,10.701,0,5.4,4.101,9.5,15.001,9.5,13.901,0,19.301-6.201,19.301-12.401ZM197.497,141.521c0-8.601-5.2-12.801-12.601-12.801-7.601,0-12.301,4.5-12.301,12.601,0,8.6,4.9,12.801,12.301,12.801,7.601,0,12.601-4.5,12.601-12.601Z" style="fill: #232323;"/>
    <path d="M214.394,174.123l7.9-1.2v-41.902l-8.4-1.2v-2.9l14.001-1.7.8.4v47.303l7.901,1.2v2.7h-22.202v-2.7ZM220.694,110.519c0-2.3,1.9-4.2,4.3-4.2,2.5,0,4.3,1.9,4.3,4.2,0,2.2-1.8,4.3-4.3,4.3-2.4,0-4.3-2.1-4.3-4.3Z" style="fill: #232323;"/>
    <path d="M244.294,175.023l-.8-12.4h3.6l2.101,8.601c2.5,1.3,6.1,2.6,11,2.6,8,0,12.401-3.3,12.401-9.201s-2.7-8-10.101-10.201l-6.101-1.8c-7.8-2.4-12.201-6.5-12.201-13.701,0-7.9,6-14.001,17.201-14.001,6.2,0,10.8.9,14.201,2.1l.2,11.601h-3.4l-1.9-7.5c-2-1.2-4.9-2.1-9.701-2.1-6.4,0-10.801,2.6-10.801,8.4,0,4.9,2.3,7.4,9.9,9.701l6.101,1.8c8.701,2.7,12.701,6.5,12.701,14.101,0,8.5-6.3,14.901-18.901,14.901-6.201,0-11.601-1.4-15.501-2.9Z" style="fill: #232323;"/>
    <path d="M293.194,165.823v-35.603h-7.5v-2.8l7.9-1.7,1.2-12.101h4.801v12.101h14v4.5h-14v34.302c0,6.2,2.2,8.601,8.3,8.601,2.4,0,4.7-.4,6.8-1v2.9c-2.2,1.3-5.8,2.601-9.5,2.601-7.601,0-12-3.101-12-11.801Z" style="fill: #232323;"/>
    <path d="M320.693,174.123l7.9-1.2v-41.902l-8.4-1.2v-2.9l14.001-1.7.8.4v47.303l7.901,1.2v2.7h-22.202v-2.7ZM326.993,110.519c0-2.3,1.9-4.2,4.3-4.2,2.5,0,4.3,1.9,4.3,4.2,0,2.2-1.8,4.3-4.3,4.3-2.4,0-4.3-2.1-4.3-4.3Z" style="fill: #232323;"/>
    <path d="M345.693,174.123l7.701-1.1v-64.704l-8.101-1.2v-2.9l13.701-1.7.8.5v70.004l8.101,1.1v2.7h-22.202v-2.7ZM363.694,150.922v-1.2l17.301-20.101-6.3-1.1v-2.8h18.401v2.8l-6.7,1.1-16.901,18.801,18.701,24.501,7,1.2v2.7h-11.701l-19.801-25.901Z" style="fill: #232323;"/>
    <path d="M397.592,164.123c0-8.701,6.201-12.301,15.601-13.801l13.901-2.2v-6.701c0-8.4-2-11.5-11.5-11.5-4.9,0-10.101.8-14.101,1.8v-3.4c3.9-1.7,10.401-3.5,16.701-3.5,10.5,0,15.401,4.701,15.401,14.901v29.602c0,3.7,1.9,4.5,5,4.5.5,0,2.6-.1,2.8-.2v2.7c-1.1.6-3.7,1.3-6.5,1.3-4.101,0-6.601-1.9-7.101-5.701h-.4c-3.2,3.4-7.901,6-14.401,6-9.301,0-15.401-5.3-15.401-13.801ZM427.094,168.323v-15.701l-11.9.9c-8.201.7-11.001,4.2-11.001,9.9,0,6.3,3.6,9.901,10.901,9.901,4.9,0,9.5-2.2,12-5Z" style="fill: #232323;"/>
  </g>
</svg>