<?xml version="1.0" encoding="UTF-8"?>
<svg xmlns="http://www.w3.org/2000/svg" viewBox="0 0 576.047 166.154" preserveAspectRatio="xMidYMid meet">
  <path d="M454.833,48.939v-4.298c0-6.133,4.119-8.417,7.924-10.163,3.223-1.567,6.447-2.015,6.447-5.552,0-2.283-.986-3.447-2.91-3.447-1.881,0-2.82.806-3.717,3-.537,1.343-.984,1.611-2.193,1.208l-4.164-1.388c-1.209-.403-1.521-1.03-1.074-2.328,1.701-4.566,5.014-7.655,11.283-7.655,6.982,0,10.879,4.208,10.879,10.252s-3.09,8.461-9.133,11.058c-2.061.94-4.746,2.015-4.746,3.626v.358h11.773c1.344,0,1.791.493,1.791,1.88v3.447c0,1.343-.447,1.835-1.791,1.835h-18.623c-1.254,0-1.746-.493-1.746-1.835ZM480.977,40.03v-10.342c0-6.939,4.297-11.371,11.684-11.371s11.641,4.432,11.641,11.371v10.342c0,7.029-4.254,11.416-11.641,11.416s-11.684-4.387-11.684-11.416ZM496.377,40.253v-10.789c0-2.552-1.299-3.984-3.717-3.984-2.461,0-3.715,1.433-3.715,3.984v10.789c0,2.597,1.254,4.029,3.715,4.029,2.418,0,3.717-1.433,3.717-4.029ZM508.063,48.939v-4.298c0-6.133,4.119-8.417,7.924-10.163,3.223-1.567,6.447-2.015,6.447-5.552,0-2.283-.986-3.447-2.91-3.447-1.881,0-2.82.806-3.717,3-.537,1.343-.984,1.611-2.193,1.208l-4.164-1.388c-1.209-.403-1.521-1.03-1.074-2.328,1.701-4.566,5.014-7.655,11.283-7.655,6.982,0,10.879,4.208,10.879,10.252s-3.09,8.461-9.133,11.058c-2.061.94-4.746,2.015-4.746,3.626v.358h11.773c1.344,0,1.791.493,1.791,1.88v3.447c0,1.343-.447,1.835-1.791,1.835h-18.623c-1.254,0-1.746-.493-1.746-1.835ZM533.581,44.014c-.447-1.298-.135-1.925,1.074-2.328l4.074-1.343c1.119-.358,1.746-.224,2.328,1.119.717,1.88,1.746,2.731,3.984,2.731,1.881,0,3.402-1.164,3.402-3.761,0-2.417-1.701-3.537-3.717-3.537h-8.326c-1.479,0-1.926-.627-1.746-2.149l1.209-13.162c.18-1.97.85-2.642,2.82-2.642h14.953c1.299,0,1.701.493,1.701,1.88v3.447c0,1.388-.402,1.835-1.701,1.835h-10.566l-.312,4.029h2.955c7.699,0,10.924,4.656,10.924,10.476,0,6.133-3.941,10.834-11.238,10.834-6.447,0-10.117-2.507-11.818-7.432ZM558.025,70.092h-104.563v.961h104.563v-.961ZM558.025.177h-104.563v.961h104.563V.177Z" style="fill: #232323;"/>
  <path d="M0,62.426l7.739-1.731V9.98L.204,8.045V0h34.115c18.534,0,26.478,7.638,26.478,20.266,0,9.776-5.805,14.257-12.831,16.905v.407l13.747,23.321,5.806,1.629v8.045h-19.451l-16.192-29.227h-6.721v19.451l6.822,1.629v8.147H0v-8.147ZM32.792,32.384c7.841,0,10.489-4.99,10.489-11.915,0-7.332-3.259-10.489-10.999-10.489h-7.128v22.404h7.638ZM69.761,62.426l7.638-1.731V9.878l-7.638-1.833V0h57.029l1.018,20.164h-9.368l-3.87-10.693h-20.062v20.47h8.555l2.139-7.536h7.638v24.237h-7.638l-2.139-7.74h-8.555v22.099h20.673l5.093-13.137h9.368l-1.12,22.709h-58.76v-8.147ZM131.882,62.426l6.11-1.731L159.785,0h15.988l21.183,60.695,6.11,1.731v8.147h-31.978v-8.147l7.129-1.731-3.666-11.609h-20.673l-3.87,11.609,7.332,1.731v8.147h-25.459v-8.147ZM156.526,40.735h15.378l-7.23-22.812h-.51l-7.638,22.812ZM205.308,62.426l7.638-1.731V9.878l-7.638-1.833V0h33.199v8.045l-8.147,1.731v51.021h17.72l4.99-15.275h9.369l-1.324,25.052h-55.807v-8.147ZM265.29,62.426l7.739-1.731V9.878l-7.739-1.833V0h32.792v8.045l-7.74,1.833v50.816l7.74,1.731v8.147h-32.792v-8.147ZM315.801,62.426l8.045-1.731V9.776h-9.877l-3.26,12.934h-9.776l.917-22.71h61.408l.916,22.71h-9.674l-3.361-12.934h-9.879v50.918l8.047,1.731v8.147h-33.506v-8.147ZM382.709,62.426l7.842-1.731v-19.349l-18.84-31.468-5.703-1.833V0h29.838v8.045l-5.906,1.731,12.119,21.691h.408l11.506-21.691-6.008-1.731V0h23.219v8.045l-5.703,1.833-17.516,31.162v19.654l7.74,1.731v8.147h-32.996v-8.147ZM.413,132.996c0-8.626,5.481-14.018,14.917-19.05-3.325-4.224-5.661-8.447-5.661-13.929,0-9.345,7.188-14.826,15.366-14.826,6.919,0,13.389,4.133,13.389,11.951,0,8.267-6.919,12.49-15.636,16.983l16.624,19.858c2.696-4.493,4.493-9.614,5.481-14.107l-6.829-1.258v-2.786h17.522v2.786l-6.2,1.258c-1.348,5.392-3.685,11.682-7.458,17.163l6.11,7.278,7.997,1.258v2.876h-12.131l-5.751-6.829c-4.493,4.582-10.514,7.817-18.421,7.817-11.412,0-19.32-6.739-19.32-16.444ZM35.818,138.836l-18.422-22.285c-7.188,4.044-10.604,8.717-10.604,15.726,0,7.458,5.212,13.119,14.198,13.119,6.29,0,11.232-2.695,14.827-6.56ZM20.722,111.609c7.638-4.043,11.951-7.278,11.951-14.197,0-5.751-3.505-8.537-7.907-8.537-5.302,0-9.346,3.774-9.346,10.514,0,4.763,2.246,8.357,5.302,12.221ZM78.049,126.436c0-16.983,9.166-24.711,22.465-24.711,4.853,0,7.818,1.078,10.604,2.066v-16.894l-7.817-.988v-2.696l12.85-1.438.719.359v62.003l7.009,1.078v2.427l-11.682,1.527-.719-.449v-4.942h-.359c-3.324,3.145-7.638,5.571-13.928,5.571-9.076,0-19.141-5.302-19.141-22.914ZM111.117,140.723v-31.899c-2.695-1.797-5.481-3.415-11.232-3.415-9.255,0-15.814,5.032-15.814,20.219,0,14.107,5.751,19.14,14.826,19.14,4.853,0,9.076-2.066,12.221-4.044ZM127.293,125.268c0-15.007,8.807-23.543,20.129-23.543,12.4,0,18.241,8.536,18.241,22.914h-32.439c.091,13.119,5.122,20.397,16.804,20.397,6.74,0,10.514-1.438,13.749-2.785v3.055c-2.876,1.708-7.458,4.044-14.827,4.044-15.905,0-21.656-10.424-21.656-24.082ZM159.193,120.775c-.09-10.514-4.313-15.366-12.131-15.366-8.178,0-13.119,5.571-13.748,15.905l25.879-.539ZM172.942,106.038l-5.032-.898v-2.605h17.343v2.605l-6.11.719,13.209,35.854h.27l13.3-35.854-6.2-.719v-2.605h15.275v2.605l-5.032.898-16.084,42.414h-4.673l-16.265-42.414ZM216.343,125.268c0-15.007,8.807-23.543,20.129-23.543,12.4,0,18.241,8.536,18.241,22.914h-32.439c.09,13.119,5.122,20.397,16.804,20.397,6.74,0,10.514-1.438,13.749-2.785v3.055c-2.876,1.708-7.459,4.044-14.827,4.044-15.905,0-21.656-10.424-21.656-24.082ZM248.243,120.775c-.09-10.514-4.313-15.366-12.131-15.366-8.178,0-13.119,5.571-13.749,15.905l25.88-.539ZM258.576,146.025l7.099-1.078v-58.049l-7.817-1.078v-2.606l12.85-1.527.719.449v62.812l7.1,1.078v2.427h-19.949v-2.427ZM281.851,125.807c0-14.917,9.795-24.082,21.207-24.082,12.041,0,21.386,8.716,21.386,23.633s-9.795,24.082-21.207,24.082c-12.041,0-21.387-8.717-21.387-23.633ZM318.424,125.897c0-14.647-7.549-20.398-15.367-20.398s-15.187,5.571-15.187,19.859c0,14.467,7.549,20.308,15.366,20.308s15.187-5.481,15.187-19.769ZM328.217,163.727l6.92-.898v-55.532l-7.1-1.079v-2.605l11.771-1.527.719.359v4.673h.359c4.135-3.056,8.627-5.392,15.008-5.392,9.166,0,18.061,4.762,18.061,22.285,0,17.162-8.895,25.34-22.195,25.34-5.031,0-7.996-.629-10.873-1.527v14.916l7.818.988v2.427h-20.488v-2.427ZM367.936,125.178c0-14.198-5.842-18.781-14.646-18.781-5.033,0-9.256,1.888-12.402,3.685v32.619c2.607,1.527,5.482,2.965,11.502,2.965,9.256,0,15.547-5.392,15.547-20.487ZM378.178,146.025l6.918-1.078v-37.65l-7.008-1.079v-2.605l11.771-1.527.719.359v4.313h.359c4.941-2.876,9.615-5.032,15.994-5.032,5.572,0,8.986,1.887,10.873,5.481h.359c4.854-2.966,10.514-5.481,16.715-5.481,7.906,0,12.221,3.863,12.221,12.221v31.001l7.098,1.078v2.427h-19.857v-2.427l7.008-1.078v-29.384c0-6.739-3.234-9.256-9.613-9.256-4.764,0-8.986,1.618-13.121,3.505.18.988.359,2.336.359,4.224v30.911l7.01,1.078v2.427h-19.77v-2.427l7.1-1.078v-29.384c0-6.649-3.145-9.256-9.436-9.256-5.211,0-8.717,1.438-13.029,3.415v35.225l7.01,1.078v2.427h-19.68v-2.427ZM457.792,125.268c0-15.007,8.807-23.543,20.129-23.543,12.4,0,18.242,8.536,18.242,22.914h-32.439c.09,13.119,5.121,20.397,16.803,20.397,6.74,0,10.514-1.438,13.75-2.785v3.055c-2.877,1.708-7.459,4.044-14.828,4.044-15.904,0-21.656-10.424-21.656-24.082ZM489.692,120.775c-.09-10.514-4.312-15.366-12.131-15.366-8.178,0-13.119,5.571-13.748,15.905l25.879-.539ZM500.026,146.025l6.918-1.078v-37.65l-7.008-1.079v-2.605l11.771-1.527.719.359v4.493h.359c4.852-2.876,10.604-5.212,16.533-5.212,8.447,0,12.852,3.504,12.852,12.131v31.091l7.008,1.078v2.427h-19.68v-2.427l6.92-1.078v-29.563c0-6.56-3.145-8.986-10.154-8.986-4.762,0-9.346,1.528-13.568,3.505v35.045l7.01,1.078v2.427h-19.68v-2.427ZM556.727,138.567v-31.99h-6.74v-2.516l7.1-1.527,1.078-10.873h4.312v10.873h12.582v4.043h-12.582v30.822c0,5.571,1.979,7.728,7.459,7.728,2.156,0,4.223-.359,6.111-.898v2.605c-1.979,1.169-5.213,2.337-8.537,2.337-6.83,0-10.783-2.786-10.783-10.604Z" style="fill: #fff;"/>
</svg>